<?xml version="1.0" encoding="UTF-8"?>
<svg version="1.1" xmlns="http://www.w3.org/2000/svg" width="1536" height="1024">
<path d="M0 0 C506.88 0 1013.76 0 1536 0 C1536 337.92 1536 675.84 1536 1024 C1029.12 1024 522.24 1024 0 1024 C0 686.08 0 348.16 0 0 Z " fill="#FDFDFD" transform="translate(0,0)"/>
<path d="M0 0 C1.37406006 0.38720215 1.37406006 0.38720215 2.77587891 0.78222656 C22.30573582 6.47567637 40.16831789 14.34291311 55.4375 28.0625 C57.69784928 30.1975436 57.69784928 30.1975436 59.75 29.9296875 C63.098891 28.54594434 65.7335753 26.27932037 68.5625 24.0625 C101.65598998 -0.80748773 143.41802639 -7.13976597 183.8359375 -2.31640625 C217.28228644 2.6543132 247.7464448 18.34817759 269 45 C282.5567896 64.15489434 289.22890917 84.67235204 289.5625 108.0625 C289.58948975 109.16553467 289.61647949 110.26856934 289.64428711 111.4050293 C289.59346293 122.7807715 287.05516427 133.62120033 284.69326782 144.70108032 C283.58103958 149.99362604 282.55965015 155.30318286 281.53515625 160.61328125 C281.12700024 162.71214932 280.71846972 164.8109446 280.30957031 166.90966797 C280.10577759 167.95652771 279.90198486 169.00338745 279.6920166 170.08197021 C276.19369372 188.0345329 272.59558416 205.95031963 268.68994141 223.81884766 C265.13423962 240.21332548 261.83510027 256.64926383 258.81518555 273.15039062 C255.34089919 292.10955612 251.39875365 310.96371628 247.375 329.8125 C247.18095581 330.72395782 246.98691162 331.63541565 246.7869873 332.57449341 C240.58229848 361.68251716 233.83748829 388.5530084 208.3125 406.8671875 C202.45185085 410.6406715 196.48892463 413.51504567 190 416 C189.34306152 416.2582959 188.68612305 416.5165918 188.00927734 416.78271484 C171.96955871 422.79326645 154.83449192 421.48968136 138 421 C139.95263294 408.98099846 142.14452383 397.03673501 144.71702576 385.1339283 C147.52843161 372.10924984 150.23426943 359.06416736 152.875 346.00390625 C153.03974005 345.18924393 153.20448009 344.3745816 153.37421227 343.53523254 C154.40622926 338.4290296 155.43585779 333.32234686 156.46504211 328.21557236 C157.38122814 323.67183556 158.29956903 319.12853435 159.21777344 314.58520508 C160.7312157 307.09569105 162.24392013 299.60602853 163.75585938 292.11621094 C166.76696977 277.20022584 169.77866419 262.28436014 172.79705048 247.36984539 C173.5933891 243.43467925 174.38909834 239.49938852 175.18310547 235.56375122 C178.14486544 220.88402263 181.13349392 206.21432152 184.35089111 191.58792114 C186.02984869 183.93549673 187.5495745 176.26183336 189 168.5625 C190.42017012 161.06111573 191.85212705 153.5665587 193.4921875 146.109375 C193.72550781 145.04130615 193.95882813 143.9732373 194.19921875 142.87280273 C194.63115129 140.91677876 195.07290616 138.96288114 195.52734375 137.01196289 C198.14084414 125.1376277 198.31001083 111.9334238 192.31640625 101.0078125 C187.52667226 93.7024022 182.06455363 88.41144415 174 85 C172.61748047 84.4121875 172.61748047 84.4121875 171.20703125 83.8125 C158.18507625 79.05923886 143.90066201 79.16005118 131.09375 84.44140625 C116.81782621 91.63344361 106.65832369 103.11600064 101 118 C99.54058565 122.99432801 98.4121121 128.04292687 97.3125 133.125 C96.97492943 134.64528958 96.63685919 136.16546828 96.29833984 137.68554688 C89.36326838 169.06386366 83.24744011 200.62229992 77.11004639 232.16387939 C74.38934968 246.13204927 71.53794652 260.04717929 68.37109375 273.921875 C66.76497762 280.97152345 65.28206111 288.04579455 63.8125 295.125 C63.5743457 296.26308105 63.33619141 297.40116211 63.09082031 298.57373047 C61.2071942 307.69465493 59.62060024 316.81659866 58 326 C27.64 326 -2.72 326 -34 326 C-31.62448927 312.93469097 -29.24660493 299.8897786 -26.625 286.875 C-26.47626434 286.13309418 -26.32752869 285.39118835 -26.17428589 284.62680054 C-24.21128992 274.83881239 -22.17921232 265.06856704 -20.0625 255.3125 C-17.42211176 243.13098607 -14.94694938 230.92107176 -12.54125977 218.69140625 C-10.54427436 208.57058381 -8.47568596 198.46745512 -6.33703613 188.37574768 C-5.19986424 183.00789543 -4.07749941 177.63696804 -2.95757294 172.26549435 C-2.15847235 168.43794219 -1.35173031 164.61234825 -0.52661133 160.79031372 C7.50708869 130.30759979 7.50708869 130.30759979 1 101 C0.525625 100.22785156 0.05125 99.45570313 -0.4375 98.66015625 C-7.19996674 88.89034252 -16.75588146 84.32761218 -28.09765625 81.65625 C-43.2617051 79.10613968 -57.15620778 81.50185177 -70 90 C-88.37473745 103.40620844 -91.94661642 124.61610269 -96.3125 145.5 C-96.93143341 148.44679531 -97.5516487 151.39332033 -98.171875 154.33984375 C-98.32644669 155.07528915 -98.48101837 155.81073456 -98.64027405 156.56846619 C-99.60143054 161.13433153 -100.58164635 165.69558692 -101.578125 170.25390625 C-104.25921248 182.5329024 -106.77080749 194.83040269 -109.0625 207.1875 C-109.18894897 207.86928314 -109.31539795 208.55106628 -109.44567871 209.25350952 C-109.69870728 210.61842662 -109.95169839 211.98335066 -110.20465088 213.34828186 C-110.32789734 214.01323166 -110.4511438 214.67818146 -110.578125 215.36328125 C-110.7613028 216.3515818 -110.7613028 216.3515818 -110.94818115 217.35984802 C-113.44855806 230.82332689 -116.17866142 244.23569517 -119.06640625 257.62109375 C-119.34853722 258.93034821 -119.34853722 258.93034821 -119.6363678 260.26605225 C-120.56456221 264.56979916 -121.49713261 268.87250336 -122.4387207 273.17333984 C-126.24723941 290.73727147 -129.5663046 308.34099508 -133 326 C-162.7 326 -192.4 326 -223 326 C-222.3719629 319.09159191 -221.71126733 312.72513908 -220.25 306.03125 C-219.98925186 304.79869728 -219.98925186 304.79869728 -219.72323608 303.54124451 C-219.15461565 300.85956012 -218.57727006 298.17983439 -218 295.5 C-217.59518866 293.59723054 -217.19106766 291.6943141 -216.78759766 289.79125977 C-215.94866017 285.83698517 -215.10676682 281.88335755 -214.26269531 277.93017578 C-212.46591306 269.50493802 -210.7023536 261.07276523 -208.93991089 252.64028931 C-208.37321628 249.92896586 -207.80591866 247.21776911 -207.23852539 244.5065918 C-204.95909755 233.61113596 -202.68627008 222.71432908 -200.4375 211.8125 C-200.29809998 211.13671906 -200.15869995 210.46093811 -200.01507568 209.76467896 C-198.32465024 201.55874086 -196.66550812 193.3469927 -195.03515625 185.12890625 C-191.15748226 165.58537783 -187.17450612 146.08020682 -182.80712891 126.63964844 C-182.01765547 123.07961518 -181.2611457 119.51396464 -180.51171875 115.9453125 C-174.83742871 89.39269196 -164.77483983 65.72405823 -147 45 C-146.20335937 44.06285156 -145.40671875 43.12570312 -144.5859375 42.16015625 C-123.84601746 18.46248129 -94.22602222 2.35795697 -63 -2 C-61.10507812 -2.27263672 -61.10507812 -2.27263672 -59.171875 -2.55078125 C-40.38379767 -4.54774428 -18.27841157 -5.15209082 0 0 Z " fill="#1E1B22" transform="translate(584,302)"/>
<path d="M0 0 C23.18494956 -0.07040188 46.36988123 -0.12313974 69.55491638 -0.15543652 C80.32261755 -0.1708379 91.0902519 -0.19179705 101.85791016 -0.22631836 C111.25424436 -0.25642856 120.65053012 -0.27562374 130.04691124 -0.28226548 C135.01200745 -0.28614152 139.97696522 -0.29510635 144.9420166 -0.31719017 C196.28512008 -0.53656682 246.26652853 5.38963824 284.8984375 42.80078125 C300.93188308 58.94925155 313.06011688 80.10115381 319 102 C319.19754883 102.71349609 319.39509766 103.42699219 319.59863281 104.16210938 C322.76249219 116.14438533 323.39215313 127.98944476 323.4375 140.3125 C323.4436734 141.02153473 323.4498468 141.73056946 323.45620728 142.46109009 C323.51503597 152.96376002 322.26019906 162.7525889 320 173 C319.81203857 173.89033936 319.62407715 174.78067871 319.43041992 175.69799805 C310.55539834 216.15269172 285.33805368 249.35411554 250.91015625 271.6875 C218.22504155 292.18030321 183.13747894 295.48557348 145.55328584 295.30418181 C140.95160917 295.28522038 136.34992443 295.28364944 131.74821472 295.28010559 C123.06479696 295.27084158 114.38149472 295.24630561 105.69812745 295.21605712 C95.79946349 295.18233563 85.90079353 295.16598282 76.00208628 295.15097082 C55.66799345 295.11974992 35.33400405 295.06710126 15 295 C15.79229877 290.68503474 16.58720977 286.37055456 17.38256836 282.05615234 C17.60530174 280.84293808 17.82803513 279.62972382 18.05751801 278.37974548 C19.711987 269.41531084 21.54213196 260.51461939 23.5625 251.625 C25.56458098 242.77124978 27.42643657 233.9130745 29.10913086 224.99365234 C29.29203423 224.02860275 29.47493759 223.06355316 29.66338348 222.06925964 C30.10982474 219.71300899 30.5553443 217.35658814 31 215 C32.07423926 214.99780016 32.07423926 214.99780016 33.17018032 214.99555588 C50.66780779 214.95836009 68.1652261 214.8991778 85.66269588 214.81609726 C94.12466144 214.77643828 102.58653576 214.74397952 111.04858398 214.72900391 C118.43176651 214.71591875 125.81474718 214.68878129 133.19781595 214.64538693 C137.10019235 214.62292489 141.00232123 214.60708002 144.90476799 214.60811615 C172.41888399 214.60746161 198.07060192 212.90367441 218.72265625 192.28125 C233.73955929 175.4297027 237.91364098 154.99435198 237 133 C235.52747136 117.08177905 227.77760058 104.30843809 215.68359375 94 C202.7368912 84.35122022 187.42304503 81.38984697 171.62915039 81.45410156 C170.26733743 81.44533507 168.9055347 81.4348388 167.54374695 81.42277527 C163.90003894 81.39526992 160.25667282 81.39150258 156.61287618 81.39249516 C152.78517225 81.38933502 148.95761552 81.36365342 145.12998962 81.34051514 C137.90563363 81.30018635 130.68136735 81.27966931 123.45691627 81.26654124 C115.22206247 81.25059216 106.98735968 81.21214396 98.75259411 81.17194796 C81.83510801 81.08986604 64.91764659 81.03557667 48 81 C47.83886215 80.44421768 47.6777243 79.88843536 47.51170349 79.31581116 C46.7619388 76.74147391 46.00405741 74.16959087 45.24609375 71.59765625 C44.86632385 70.28698181 44.86632385 70.28698181 44.47888184 68.9498291 C40.57422681 55.7605689 35.01754979 43.21776075 27 32 C26.30003906 31.01644531 25.60007812 30.03289062 24.87890625 29.01953125 C14.22456848 13.63381708 14.22456848 13.63381708 0 2 C0 1.34 0 0.68 0 0 Z " fill="#1F1C22" transform="translate(856,301)"/>
</svg>
